<?xml version="1.0" encoding="UTF-8" standalone="no"?>
<!DOCTYPE svg PUBLIC "-//W3C//DTD SVG 1.1//EN"
 "http://www.w3.org/Graphics/SVG/1.1/DTD/svg11.dtd">
<!-- Generated by graphviz version 2.40.1 (20161225.0304)
 -->
<!-- Title: %3 Pages: 1 -->
<svg width="1639pt" height="476pt"
 viewBox="0.00 0.00 1639.00 476.00" xmlns="http://www.w3.org/2000/svg" xmlns:xlink="http://www.w3.org/1999/xlink">
<g id="graph0" class="graph" transform="scale(1 1) rotate(0) translate(4 472)">
<title>%3</title>
<polygon fill="#ffffff" stroke="transparent" points="-4,4 -4,-472 1635,-472 1635,4 -4,4"/>
<!-- [root] azurerm_kubernetes_cluster.k8s -->
<g id="node1" class="node">
<title>[root] azurerm_kubernetes_cluster.k8s</title>
<polygon fill="none" stroke="#000000" points="753.5,-252 561.5,-252 561.5,-216 753.5,-216 753.5,-252"/>
<text text-anchor="middle" x="657.5" y="-230.3" font-family="Times,serif" font-size="14.00" fill="#000000">azurerm_kubernetes_cluster.k8s</text>
</g>
<!-- [root] azurerm_log_analytics_workspace.test -->
<g id="node3" class="node">
<title>[root] azurerm_log_analytics_workspace.test</title>
<polygon fill="none" stroke="#000000" points="1212,-180 985,-180 985,-144 1212,-144 1212,-180"/>
<text text-anchor="middle" x="1098.5" y="-158.3" font-family="Times,serif" font-size="14.00" fill="#000000">azurerm_log_analytics_workspace.test</text>
</g>
<!-- [root] azurerm_kubernetes_cluster.k8s&#45;&gt;[root] azurerm_log_analytics_workspace.test -->
<g id="edge1" class="edge">
<title>[root] azurerm_kubernetes_cluster.k8s&#45;&gt;[root] azurerm_log_analytics_workspace.test</title>
<path fill="none" stroke="#000000" d="M753.7344,-218.2883C819.5586,-207.5415 907.3194,-193.2132 977.8223,-181.7025"/>
<polygon fill="#000000" stroke="#000000" points="978.7891,-185.0911 988.0945,-180.0254 977.6611,-178.1825 978.7891,-185.0911"/>
</g>
<!-- [root] var.agent_count -->
<g id="node15" class="node">
<title>[root] var.agent_count</title>
<polygon fill="none" stroke="#000000" points="350.5,-180 252.5,-180 252.5,-144 356.5,-144 356.5,-174 350.5,-180"/>
<polyline fill="none" stroke="#000000" points="350.5,-180 350.5,-174 "/>
<polyline fill="none" stroke="#000000" points="356.5,-174 350.5,-174 "/>
<text text-anchor="middle" x="304.5" y="-158.3" font-family="Times,serif" font-size="14.00" fill="#000000">var.agent_count</text>
</g>
<!-- [root] azurerm_kubernetes_cluster.k8s&#45;&gt;[root] var.agent_count -->
<g id="edge2" class="edge">
<title>[root] azurerm_kubernetes_cluster.k8s&#45;&gt;[root] var.agent_count</title>
<path fill="none" stroke="#000000" d="M561.2967,-218.801C506.6727,-209.5571 436.9006,-196.724 366.573,-180.1407"/>
<polygon fill="#000000" stroke="#000000" points="367.1863,-176.6889 356.6473,-177.7759 365.5638,-183.4983 367.1863,-176.6889"/>
</g>
<!-- [root] var.client_id -->
<g id="node16" class="node">
<title>[root] var.client_id</title>
<polygon fill="none" stroke="#000000" points="454,-180 375,-180 375,-144 460,-144 460,-174 454,-180"/>
<polyline fill="none" stroke="#000000" points="454,-180 454,-174 "/>
<polyline fill="none" stroke="#000000" points="460,-174 454,-174 "/>
<text text-anchor="middle" x="417.5" y="-158.3" font-family="Times,serif" font-size="14.00" fill="#000000">var.client_id</text>
</g>
<!-- [root] azurerm_kubernetes_cluster.k8s&#45;&gt;[root] var.client_id -->
<g id="edge3" class="edge">
<title>[root] azurerm_kubernetes_cluster.k8s&#45;&gt;[root] var.client_id</title>
<path fill="none" stroke="#000000" d="M591.5527,-215.9897C557.7072,-206.5278 515.6433,-194.4342 469.5812,-179.9488"/>
<polygon fill="#000000" stroke="#000000" points="470.5954,-176.5988 460.0055,-176.921 468.4849,-183.2731 470.5954,-176.5988"/>
</g>
<!-- [root] var.client_secret -->
<g id="node17" class="node">
<title>[root] var.client_secret</title>
<polygon fill="none" stroke="#000000" points="578.5,-180 478.5,-180 478.5,-144 584.5,-144 584.5,-174 578.5,-180"/>
<polyline fill="none" stroke="#000000" points="578.5,-180 578.5,-174 "/>
<polyline fill="none" stroke="#000000" points="584.5,-174 578.5,-174 "/>
<text text-anchor="middle" x="531.5" y="-158.3" font-family="Times,serif" font-size="14.00" fill="#000000">var.client_secret</text>
</g>
<!-- [root] azurerm_kubernetes_cluster.k8s&#45;&gt;[root] var.client_secret -->
<g id="edge4" class="edge">
<title>[root] azurerm_kubernetes_cluster.k8s&#45;&gt;[root] var.client_secret</title>
<path fill="none" stroke="#000000" d="M625.7049,-215.8314C609.4395,-206.5368 589.4614,-195.1208 572.0949,-185.1971"/>
<polygon fill="#000000" stroke="#000000" points="573.7039,-182.0854 563.2849,-180.1628 570.2309,-188.1631 573.7039,-182.0854"/>
</g>
<!-- [root] var.cluster_name -->
<g id="node18" class="node">
<title>[root] var.cluster_name</title>
<polygon fill="none" stroke="#000000" points="706.5,-180 602.5,-180 602.5,-144 712.5,-144 712.5,-174 706.5,-180"/>
<polyline fill="none" stroke="#000000" points="706.5,-180 706.5,-174 "/>
<polyline fill="none" stroke="#000000" points="712.5,-174 706.5,-174 "/>
<text text-anchor="middle" x="657.5" y="-158.3" font-family="Times,serif" font-size="14.00" fill="#000000">var.cluster_name</text>
</g>
<!-- [root] azurerm_kubernetes_cluster.k8s&#45;&gt;[root] var.cluster_name -->
<g id="edge5" class="edge">
<title>[root] azurerm_kubernetes_cluster.k8s&#45;&gt;[root] var.cluster_name</title>
<path fill="none" stroke="#000000" d="M657.5,-215.8314C657.5,-208.131 657.5,-198.9743 657.5,-190.4166"/>
<polygon fill="#000000" stroke="#000000" points="661.0001,-190.4132 657.5,-180.4133 654.0001,-190.4133 661.0001,-190.4132"/>
</g>
<!-- [root] var.dns_prefix -->
<g id="node19" class="node">
<title>[root] var.dns_prefix</title>
<polygon fill="none" stroke="#000000" points="820,-180 731,-180 731,-144 826,-144 826,-174 820,-180"/>
<polyline fill="none" stroke="#000000" points="820,-180 820,-174 "/>
<polyline fill="none" stroke="#000000" points="826,-174 820,-174 "/>
<text text-anchor="middle" x="778.5" y="-158.3" font-family="Times,serif" font-size="14.00" fill="#000000">var.dns_prefix</text>
</g>
<!-- [root] azurerm_kubernetes_cluster.k8s&#45;&gt;[root] var.dns_prefix -->
<g id="edge6" class="edge">
<title>[root] azurerm_kubernetes_cluster.k8s&#45;&gt;[root] var.dns_prefix</title>
<path fill="none" stroke="#000000" d="M688.0334,-215.8314C703.5101,-206.6221 722.4869,-195.3301 739.0563,-185.4706"/>
<polygon fill="#000000" stroke="#000000" points="741.1724,-188.2843 747.9764,-180.1628 737.5929,-182.2687 741.1724,-188.2843"/>
</g>
<!-- [root] var.ssh_public_key -->
<g id="node25" class="node">
<title>[root] var.ssh_public_key</title>
<polygon fill="none" stroke="#000000" points="960.5,-180 844.5,-180 844.5,-144 966.5,-144 966.5,-174 960.5,-180"/>
<polyline fill="none" stroke="#000000" points="960.5,-180 960.5,-174 "/>
<polyline fill="none" stroke="#000000" points="966.5,-174 960.5,-174 "/>
<text text-anchor="middle" x="905.5" y="-158.3" font-family="Times,serif" font-size="14.00" fill="#000000">var.ssh_public_key</text>
</g>
<!-- [root] azurerm_kubernetes_cluster.k8s&#45;&gt;[root] var.ssh_public_key -->
<g id="edge7" class="edge">
<title>[root] azurerm_kubernetes_cluster.k8s&#45;&gt;[root] var.ssh_public_key</title>
<path fill="none" stroke="#000000" d="M719.7608,-215.9243C754.5157,-205.8341 797.9582,-193.2218 834.0892,-182.7322"/>
<polygon fill="#000000" stroke="#000000" points="835.4452,-185.9831 844.0728,-179.8337 833.4935,-179.2607 835.4452,-185.9831"/>
</g>
<!-- [root] azurerm_log_analytics_solution.test -->
<g id="node2" class="node">
<title>[root] azurerm_log_analytics_solution.test</title>
<polygon fill="none" stroke="#000000" points="1266,-324 1053,-324 1053,-288 1266,-288 1266,-324"/>
<text text-anchor="middle" x="1159.5" y="-302.3" font-family="Times,serif" font-size="14.00" fill="#000000">azurerm_log_analytics_solution.test</text>
</g>
<!-- [root] azurerm_log_analytics_solution.test&#45;&gt;[root] azurerm_log_analytics_workspace.test -->
<g id="edge8" class="edge">
<title>[root] azurerm_log_analytics_solution.test&#45;&gt;[root] azurerm_log_analytics_workspace.test</title>
<path fill="none" stroke="#000000" d="M1151.7743,-287.7623C1141.2782,-262.9846 1122.4219,-218.4714 1110.1891,-189.5939"/>
<polygon fill="#000000" stroke="#000000" points="1113.2864,-187.9323 1106.163,-180.0896 1106.8408,-190.6628 1113.2864,-187.9323"/>
</g>
<!-- [root] azurerm_resource_group.k8s -->
<g id="node4" class="node">
<title>[root] azurerm_resource_group.k8s</title>
<polygon fill="none" stroke="#000000" points="850,-108 675,-108 675,-72 850,-72 850,-108"/>
<text text-anchor="middle" x="762.5" y="-86.3" font-family="Times,serif" font-size="14.00" fill="#000000">azurerm_resource_group.k8s</text>
</g>
<!-- [root] azurerm_log_analytics_workspace.test&#45;&gt;[root] azurerm_resource_group.k8s -->
<g id="edge9" class="edge">
<title>[root] azurerm_log_analytics_workspace.test&#45;&gt;[root] azurerm_resource_group.k8s</title>
<path fill="none" stroke="#000000" d="M1014.1467,-143.9243C966.2254,-133.6554 906.1132,-120.7743 856.6586,-110.1768"/>
<polygon fill="#000000" stroke="#000000" points="857.1079,-106.6937 846.5965,-108.0207 855.6412,-113.5384 857.1079,-106.6937"/>
</g>
<!-- [root] random_id.log_analytics_workspace_name_suffix -->
<g id="node14" class="node">
<title>[root] random_id.log_analytics_workspace_name_suffix</title>
<polygon fill="none" stroke="#000000" points="1631,-108 1340,-108 1340,-72 1631,-72 1631,-108"/>
<text text-anchor="middle" x="1485.5" y="-86.3" font-family="Times,serif" font-size="14.00" fill="#000000">random_id.log_analytics_workspace_name_suffix</text>
</g>
<!-- [root] azurerm_log_analytics_workspace.test&#45;&gt;[root] random_id.log_analytics_workspace_name_suffix -->
<g id="edge10" class="edge">
<title>[root] azurerm_log_analytics_workspace.test&#45;&gt;[root] random_id.log_analytics_workspace_name_suffix</title>
<path fill="none" stroke="#000000" d="M1195.6569,-143.9243C1251.3129,-133.5697 1321.2457,-120.5589 1378.4739,-109.9118"/>
<polygon fill="#000000" stroke="#000000" points="1379.4477,-113.2908 1388.6388,-108.0207 1378.1673,-106.4089 1379.4477,-113.2908"/>
</g>
<!-- [root] var.log_analytics_workspace_location -->
<g id="node21" class="node">
<title>[root] var.log_analytics_workspace_location</title>
<polygon fill="none" stroke="#000000" points="1086.5,-108 868.5,-108 868.5,-72 1092.5,-72 1092.5,-102 1086.5,-108"/>
<polyline fill="none" stroke="#000000" points="1086.5,-108 1086.5,-102 "/>
<polyline fill="none" stroke="#000000" points="1092.5,-102 1086.5,-102 "/>
<text text-anchor="middle" x="980.5" y="-86.3" font-family="Times,serif" font-size="14.00" fill="#000000">var.log_analytics_workspace_location</text>
</g>
<!-- [root] azurerm_log_analytics_workspace.test&#45;&gt;[root] var.log_analytics_workspace_location -->
<g id="edge11" class="edge">
<title>[root] azurerm_log_analytics_workspace.test&#45;&gt;[root] var.log_analytics_workspace_location</title>
<path fill="none" stroke="#000000" d="M1068.7236,-143.8314C1053.6307,-134.6221 1035.1243,-123.3301 1018.9657,-113.4706"/>
<polygon fill="#000000" stroke="#000000" points="1020.6263,-110.3838 1010.2669,-108.1628 1016.9802,-116.3593 1020.6263,-110.3838"/>
</g>
<!-- [root] var.log_analytics_workspace_name -->
<g id="node22" class="node">
<title>[root] var.log_analytics_workspace_name</title>
<polygon fill="none" stroke="#000000" points="1316,-108 1111,-108 1111,-72 1322,-72 1322,-102 1316,-108"/>
<polyline fill="none" stroke="#000000" points="1316,-108 1316,-102 "/>
<polyline fill="none" stroke="#000000" points="1322,-102 1316,-102 "/>
<text text-anchor="middle" x="1216.5" y="-86.3" font-family="Times,serif" font-size="14.00" fill="#000000">var.log_analytics_workspace_name</text>
</g>
<!-- [root] azurerm_log_analytics_workspace.test&#45;&gt;[root] var.log_analytics_workspace_name -->
<g id="edge12" class="edge">
<title>[root] azurerm_log_analytics_workspace.test&#45;&gt;[root] var.log_analytics_workspace_name</title>
<path fill="none" stroke="#000000" d="M1128.2764,-143.8314C1143.3693,-134.6221 1161.8757,-123.3301 1178.0343,-113.4706"/>
<polygon fill="#000000" stroke="#000000" points="1180.0198,-116.3593 1186.7331,-108.1628 1176.3737,-110.3838 1180.0198,-116.3593"/>
</g>
<!-- [root] var.log_analytics_workspace_sku -->
<g id="node23" class="node">
<title>[root] var.log_analytics_workspace_sku</title>
<polygon fill="none" stroke="#000000" points="650.5,-108 456.5,-108 456.5,-72 656.5,-72 656.5,-102 650.5,-108"/>
<polyline fill="none" stroke="#000000" points="650.5,-108 650.5,-102 "/>
<polyline fill="none" stroke="#000000" points="656.5,-102 650.5,-102 "/>
<text text-anchor="middle" x="556.5" y="-86.3" font-family="Times,serif" font-size="14.00" fill="#000000">var.log_analytics_workspace_sku</text>
</g>
<!-- [root] azurerm_log_analytics_workspace.test&#45;&gt;[root] var.log_analytics_workspace_sku -->
<g id="edge13" class="edge">
<title>[root] azurerm_log_analytics_workspace.test&#45;&gt;[root] var.log_analytics_workspace_sku</title>
<path fill="none" stroke="#000000" d="M984.9227,-145.2536C981.7486,-144.8258 978.6027,-144.4071 975.5,-144 841.1982,-126.3788 804.5562,-127.2525 666.6611,-108.1266"/>
<polygon fill="#000000" stroke="#000000" points="666.9431,-104.6321 656.5549,-106.7145 665.9743,-111.5648 666.9431,-104.6321"/>
</g>
<!-- [root] provider.azurerm -->
<g id="node12" class="node">
<title>[root] provider.azurerm</title>
<polygon fill="none" stroke="#000000" points="601.5,-36 499.4471,-18 601.5,0 703.5529,-18 601.5,-36"/>
<text text-anchor="middle" x="601.5" y="-14.3" font-family="Times,serif" font-size="14.00" fill="#000000">provider.azurerm</text>
</g>
<!-- [root] azurerm_resource_group.k8s&#45;&gt;[root] provider.azurerm -->
<g id="edge14" class="edge">
<title>[root] azurerm_resource_group.k8s&#45;&gt;[root] provider.azurerm</title>
<path fill="none" stroke="#000000" d="M721.8729,-71.8314C696.7082,-60.5776 664.5887,-46.2136 639.8587,-35.1542"/>
<polygon fill="#000000" stroke="#000000" points="640.9922,-31.8271 630.4346,-30.9397 638.1345,-38.2172 640.9922,-31.8271"/>
</g>
<!-- [root] var.location -->
<g id="node20" class="node">
<title>[root] var.location</title>
<polygon fill="none" stroke="#000000" points="797,-36 722,-36 722,0 803,0 803,-30 797,-36"/>
<polyline fill="none" stroke="#000000" points="797,-36 797,-30 "/>
<polyline fill="none" stroke="#000000" points="803,-30 797,-30 "/>
<text text-anchor="middle" x="762.5" y="-14.3" font-family="Times,serif" font-size="14.00" fill="#000000">var.location</text>
</g>
<!-- [root] azurerm_resource_group.k8s&#45;&gt;[root] var.location -->
<g id="edge15" class="edge">
<title>[root] azurerm_resource_group.k8s&#45;&gt;[root] var.location</title>
<path fill="none" stroke="#000000" d="M762.5,-71.8314C762.5,-64.131 762.5,-54.9743 762.5,-46.4166"/>
<polygon fill="#000000" stroke="#000000" points="766.0001,-46.4132 762.5,-36.4133 759.0001,-46.4133 766.0001,-46.4132"/>
</g>
<!-- [root] var.resource_group_name -->
<g id="node24" class="node">
<title>[root] var.resource_group_name</title>
<polygon fill="none" stroke="#000000" points="973.5,-36 821.5,-36 821.5,0 979.5,0 979.5,-30 973.5,-36"/>
<polyline fill="none" stroke="#000000" points="973.5,-36 973.5,-30 "/>
<polyline fill="none" stroke="#000000" points="979.5,-30 973.5,-30 "/>
<text text-anchor="middle" x="900.5" y="-14.3" font-family="Times,serif" font-size="14.00" fill="#000000">var.resource_group_name</text>
</g>
<!-- [root] azurerm_resource_group.k8s&#45;&gt;[root] var.resource_group_name -->
<g id="edge16" class="edge">
<title>[root] azurerm_resource_group.k8s&#45;&gt;[root] var.resource_group_name</title>
<path fill="none" stroke="#000000" d="M797.3232,-71.8314C815.3011,-62.4516 837.4203,-50.9112 856.5616,-40.9244"/>
<polygon fill="#000000" stroke="#000000" points="858.4411,-43.8916 865.6879,-36.1628 855.2031,-37.6855 858.4411,-43.8916"/>
</g>
<!-- [root] output.client_certificate -->
<g id="node5" class="node">
<title>[root] output.client_certificate</title>
<polygon fill="none" stroke="#000000" points="1028.5,-324 888.5,-324 888.5,-288 1034.5,-288 1034.5,-318 1028.5,-324"/>
<polyline fill="none" stroke="#000000" points="1028.5,-324 1028.5,-318 "/>
<polyline fill="none" stroke="#000000" points="1034.5,-318 1028.5,-318 "/>
<text text-anchor="middle" x="961.5" y="-302.3" font-family="Times,serif" font-size="14.00" fill="#000000">output.client_certificate</text>
</g>
<!-- [root] output.client_certificate&#45;&gt;[root] azurerm_kubernetes_cluster.k8s -->
<g id="edge25" class="edge">
<title>[root] output.client_certificate&#45;&gt;[root] azurerm_kubernetes_cluster.k8s</title>
<path fill="none" stroke="#000000" d="M888.2976,-288.6626C844.6769,-278.3314 789.089,-265.1658 743.3978,-254.3442"/>
<polygon fill="#000000" stroke="#000000" points="744.046,-250.901 733.5085,-252.002 742.4327,-257.7125 744.046,-250.901"/>
</g>
<!-- [root] output.client_key -->
<g id="node6" class="node">
<title>[root] output.client_key</title>
<polygon fill="none" stroke="#000000" points="105,-324 0,-324 0,-288 111,-288 111,-318 105,-324"/>
<polyline fill="none" stroke="#000000" points="105,-324 105,-318 "/>
<polyline fill="none" stroke="#000000" points="111,-318 105,-318 "/>
<text text-anchor="middle" x="55.5" y="-302.3" font-family="Times,serif" font-size="14.00" fill="#000000">output.client_key</text>
</g>
<!-- [root] output.client_key&#45;&gt;[root] azurerm_kubernetes_cluster.k8s -->
<g id="edge26" class="edge">
<title>[root] output.client_key&#45;&gt;[root] azurerm_kubernetes_cluster.k8s</title>
<path fill="none" stroke="#000000" d="M111.0237,-289.9559C114.2175,-289.2417 117.3925,-288.5821 120.5,-288 268.5299,-260.269 442.3655,-246.0731 551.2475,-239.3478"/>
<polygon fill="#000000" stroke="#000000" points="551.4831,-242.8401 561.2522,-238.7396 551.0582,-235.853 551.4831,-242.8401"/>
</g>
<!-- [root] output.cluster_ca_certificate -->
<g id="node7" class="node">
<title>[root] output.cluster_ca_certificate</title>
<polygon fill="none" stroke="#000000" points="293.5,-324 129.5,-324 129.5,-288 299.5,-288 299.5,-318 293.5,-324"/>
<polyline fill="none" stroke="#000000" points="293.5,-324 293.5,-318 "/>
<polyline fill="none" stroke="#000000" points="299.5,-318 293.5,-318 "/>
<text text-anchor="middle" x="214.5" y="-302.3" font-family="Times,serif" font-size="14.00" fill="#000000">output.cluster_ca_certificate</text>
</g>
<!-- [root] output.cluster_ca_certificate&#45;&gt;[root] azurerm_kubernetes_cluster.k8s -->
<g id="edge27" class="edge">
<title>[root] output.cluster_ca_certificate&#45;&gt;[root] azurerm_kubernetes_cluster.k8s</title>
<path fill="none" stroke="#000000" d="M299.5296,-289.5769C302.5556,-289.0373 305.5529,-288.51 308.5,-288 389.8338,-273.925 482.1428,-259.7195 551.3892,-249.4133"/>
<polygon fill="#000000" stroke="#000000" points="552.0572,-252.8526 561.4345,-247.9215 551.0289,-245.9285 552.0572,-252.8526"/>
</g>
<!-- [root] output.cluster_password -->
<g id="node8" class="node">
<title>[root] output.cluster_password</title>
<polygon fill="none" stroke="#000000" points="461,-324 318,-324 318,-288 467,-288 467,-318 461,-324"/>
<polyline fill="none" stroke="#000000" points="461,-324 461,-318 "/>
<polyline fill="none" stroke="#000000" points="467,-318 461,-318 "/>
<text text-anchor="middle" x="392.5" y="-302.3" font-family="Times,serif" font-size="14.00" fill="#000000">output.cluster_password</text>
</g>
<!-- [root] output.cluster_password&#45;&gt;[root] azurerm_kubernetes_cluster.k8s -->
<g id="edge28" class="edge">
<title>[root] output.cluster_password&#45;&gt;[root] azurerm_kubernetes_cluster.k8s</title>
<path fill="none" stroke="#000000" d="M459.0286,-287.9243C496.0432,-277.8675 542.2796,-265.3052 580.811,-254.8363"/>
<polygon fill="#000000" stroke="#000000" points="582.2115,-258.0827 590.944,-252.0831 580.3761,-251.3276 582.2115,-258.0827"/>
</g>
<!-- [root] output.cluster_username -->
<g id="node9" class="node">
<title>[root] output.cluster_username</title>
<polygon fill="none" stroke="#000000" points="628.5,-324 484.5,-324 484.5,-288 634.5,-288 634.5,-318 628.5,-324"/>
<polyline fill="none" stroke="#000000" points="628.5,-324 628.5,-318 "/>
<polyline fill="none" stroke="#000000" points="634.5,-318 628.5,-318 "/>
<text text-anchor="middle" x="559.5" y="-302.3" font-family="Times,serif" font-size="14.00" fill="#000000">output.cluster_username</text>
</g>
<!-- [root] output.cluster_username&#45;&gt;[root] azurerm_kubernetes_cluster.k8s -->
<g id="edge29" class="edge">
<title>[root] output.cluster_username&#45;&gt;[root] azurerm_kubernetes_cluster.k8s</title>
<path fill="none" stroke="#000000" d="M584.2295,-287.8314C596.4162,-278.8779 611.2823,-267.9558 624.4312,-258.2955"/>
<polygon fill="#000000" stroke="#000000" points="626.7918,-260.9042 632.7784,-252.1628 622.6473,-255.263 626.7918,-260.9042"/>
</g>
<!-- [root] output.host -->
<g id="node10" class="node">
<title>[root] output.host</title>
<polygon fill="none" stroke="#000000" points="724,-324 653,-324 653,-288 730,-288 730,-318 724,-324"/>
<polyline fill="none" stroke="#000000" points="724,-324 724,-318 "/>
<polyline fill="none" stroke="#000000" points="730,-318 724,-318 "/>
<text text-anchor="middle" x="691.5" y="-302.3" font-family="Times,serif" font-size="14.00" fill="#000000">output.host</text>
</g>
<!-- [root] output.host&#45;&gt;[root] azurerm_kubernetes_cluster.k8s -->
<g id="edge30" class="edge">
<title>[root] output.host&#45;&gt;[root] azurerm_kubernetes_cluster.k8s</title>
<path fill="none" stroke="#000000" d="M682.9204,-287.8314C679.1642,-279.8771 674.6743,-270.369 670.5202,-261.5723"/>
<polygon fill="#000000" stroke="#000000" points="673.6301,-259.9612 666.1952,-252.4133 667.3004,-262.9503 673.6301,-259.9612"/>
</g>
<!-- [root] output.kube_config -->
<g id="node11" class="node">
<title>[root] output.kube_config</title>
<polygon fill="none" stroke="#000000" points="864.5,-324 748.5,-324 748.5,-288 870.5,-288 870.5,-318 864.5,-324"/>
<polyline fill="none" stroke="#000000" points="864.5,-324 864.5,-318 "/>
<polyline fill="none" stroke="#000000" points="870.5,-318 864.5,-318 "/>
<text text-anchor="middle" x="809.5" y="-302.3" font-family="Times,serif" font-size="14.00" fill="#000000">output.kube_config</text>
</g>
<!-- [root] output.kube_config&#45;&gt;[root] azurerm_kubernetes_cluster.k8s -->
<g id="edge31" class="edge">
<title>[root] output.kube_config&#45;&gt;[root] azurerm_kubernetes_cluster.k8s</title>
<path fill="none" stroke="#000000" d="M771.144,-287.8314C750.9956,-278.2874 726.1248,-266.5065 704.7917,-256.4013"/>
<polygon fill="#000000" stroke="#000000" points="706.1159,-253.1558 695.5802,-252.038 703.1193,-259.482 706.1159,-253.1558"/>
</g>
<!-- [root] provider.random -->
<g id="node13" class="node">
<title>[root] provider.random</title>
<polygon fill="none" stroke="#000000" points="1485.5,-36 1386.4615,-18 1485.5,0 1584.5385,-18 1485.5,-36"/>
<text text-anchor="middle" x="1485.5" y="-14.3" font-family="Times,serif" font-size="14.00" fill="#000000">provider.random</text>
</g>
<!-- [root] random_id.log_analytics_workspace_name_suffix&#45;&gt;[root] provider.random -->
<g id="edge35" class="edge">
<title>[root] random_id.log_analytics_workspace_name_suffix&#45;&gt;[root] provider.random</title>
<path fill="none" stroke="#000000" d="M1485.5,-71.8314C1485.5,-64.131 1485.5,-54.9743 1485.5,-46.4166"/>
<polygon fill="#000000" stroke="#000000" points="1489.0001,-46.4132 1485.5,-36.4133 1482.0001,-46.4133 1489.0001,-46.4132"/>
</g>
<!-- [root] meta.count&#45;boundary (EachMode fixup) -->
<g id="node26" class="node">
<title>[root] meta.count&#45;boundary (EachMode fixup)</title>
<ellipse fill="none" stroke="#000000" cx="691.5" cy="-378" rx="176.5689" ry="18"/>
<text text-anchor="middle" x="691.5" y="-374.3" font-family="Times,serif" font-size="14.00" fill="#000000">[root] meta.count&#45;boundary (EachMode fixup)</text>
</g>
<!-- [root] meta.count&#45;boundary (EachMode fixup)&#45;&gt;[root] azurerm_log_analytics_solution.test -->
<g id="edge17" class="edge">
<title>[root] meta.count&#45;boundary (EachMode fixup)&#45;&gt;[root] azurerm_log_analytics_solution.test</title>
<path fill="none" stroke="#000000" d="M789.7523,-362.9735C857.8726,-352.5445 950.9844,-338.2678 1042.9439,-324.0845"/>
<polygon fill="#000000" stroke="#000000" points="1043.6408,-327.5185 1052.9903,-322.5347 1042.5735,-320.6003 1043.6408,-327.5185"/>
</g>
<!-- [root] meta.count&#45;boundary (EachMode fixup)&#45;&gt;[root] output.client_certificate -->
<g id="edge18" class="edge">
<title>[root] meta.count&#45;boundary (EachMode fixup)&#45;&gt;[root] output.client_certificate</title>
<path fill="none" stroke="#000000" d="M754.803,-361.1192C793.4751,-350.8067 843.2049,-337.5454 884.1943,-326.6148"/>
<polygon fill="#000000" stroke="#000000" points="885.1133,-329.9922 893.8738,-324.0336 883.3097,-323.2285 885.1133,-329.9922"/>
</g>
<!-- [root] meta.count&#45;boundary (EachMode fixup)&#45;&gt;[root] output.client_key -->
<g id="edge19" class="edge">
<title>[root] meta.count&#45;boundary (EachMode fixup)&#45;&gt;[root] output.client_key</title>
<path fill="none" stroke="#000000" d="M531.0928,-370.3854C418.6608,-363.2567 264.9272,-349.9232 120.9295,-323.8815"/>
<polygon fill="#000000" stroke="#000000" points="121.4866,-320.4254 111.0196,-322.0662 120.2253,-327.3108 121.4866,-320.4254"/>
</g>
<!-- [root] meta.count&#45;boundary (EachMode fixup)&#45;&gt;[root] output.cluster_ca_certificate -->
<g id="edge20" class="edge">
<title>[root] meta.count&#45;boundary (EachMode fixup)&#45;&gt;[root] output.cluster_ca_certificate</title>
<path fill="none" stroke="#000000" d="M581.0787,-363.8931C506.9904,-354.0822 406.9805,-340.1751 309.549,-324.1347"/>
<polygon fill="#000000" stroke="#000000" points="309.9582,-320.6548 299.5208,-322.4745 308.8149,-327.5609 309.9582,-320.6548"/>
</g>
<!-- [root] meta.count&#45;boundary (EachMode fixup)&#45;&gt;[root] output.cluster_password -->
<g id="edge21" class="edge">
<title>[root] meta.count&#45;boundary (EachMode fixup)&#45;&gt;[root] output.cluster_password</title>
<path fill="none" stroke="#000000" d="M622.5279,-361.3913C579.226,-350.9641 523.0767,-337.4432 477.0936,-326.3704"/>
<polygon fill="#000000" stroke="#000000" points="477.6863,-322.9131 467.1448,-323.9747 476.0475,-329.7186 477.6863,-322.9131"/>
</g>
<!-- [root] meta.count&#45;boundary (EachMode fixup)&#45;&gt;[root] output.cluster_username -->
<g id="edge22" class="edge">
<title>[root] meta.count&#45;boundary (EachMode fixup)&#45;&gt;[root] output.cluster_username</title>
<path fill="none" stroke="#000000" d="M658.8708,-360.2022C641.5499,-350.7545 620.0677,-339.0369 601.5131,-328.9162"/>
<polygon fill="#000000" stroke="#000000" points="603.1257,-325.8091 592.6707,-324.0931 599.7737,-331.9543 603.1257,-325.8091"/>
</g>
<!-- [root] meta.count&#45;boundary (EachMode fixup)&#45;&gt;[root] output.host -->
<g id="edge23" class="edge">
<title>[root] meta.count&#45;boundary (EachMode fixup)&#45;&gt;[root] output.host</title>
<path fill="none" stroke="#000000" d="M691.5,-359.8314C691.5,-352.131 691.5,-342.9743 691.5,-334.4166"/>
<polygon fill="#000000" stroke="#000000" points="695.0001,-334.4132 691.5,-324.4133 688.0001,-334.4133 695.0001,-334.4132"/>
</g>
<!-- [root] meta.count&#45;boundary (EachMode fixup)&#45;&gt;[root] output.kube_config -->
<g id="edge24" class="edge">
<title>[root] meta.count&#45;boundary (EachMode fixup)&#45;&gt;[root] output.kube_config</title>
<path fill="none" stroke="#000000" d="M720.6685,-360.2022C735.8709,-350.9262 754.6591,-339.4623 771.0355,-329.4698"/>
<polygon fill="#000000" stroke="#000000" points="773.134,-332.2896 779.8474,-324.0931 769.4879,-326.3141 773.134,-332.2896"/>
</g>
<!-- [root] provider.azurerm (close) -->
<g id="node27" class="node">
<title>[root] provider.azurerm (close)</title>
<ellipse fill="none" stroke="#000000" cx="1179.5" cy="-378" rx="120.7786" ry="18"/>
<text text-anchor="middle" x="1179.5" y="-374.3" font-family="Times,serif" font-size="14.00" fill="#000000">[root] provider.azurerm (close)</text>
</g>
<!-- [root] provider.azurerm (close)&#45;&gt;[root] azurerm_kubernetes_cluster.k8s -->
<g id="edge32" class="edge">
<title>[root] provider.azurerm (close)&#45;&gt;[root] azurerm_kubernetes_cluster.k8s</title>
<path fill="none" stroke="#000000" d="M1230.2233,-361.6513C1247.7337,-353.2979 1265.4599,-341.167 1275.5,-324 1283.5775,-310.1886 1286.3101,-299.7958 1275.5,-288 1241.6951,-251.1125 931.3301,-239.324 763.724,-235.633"/>
<polygon fill="#000000" stroke="#000000" points="763.7072,-232.1319 753.6345,-235.4167 763.5572,-239.1303 763.7072,-232.1319"/>
</g>
<!-- [root] provider.azurerm (close)&#45;&gt;[root] azurerm_log_analytics_solution.test -->
<g id="edge33" class="edge">
<title>[root] provider.azurerm (close)&#45;&gt;[root] azurerm_log_analytics_solution.test</title>
<path fill="none" stroke="#000000" d="M1174.4532,-359.8314C1172.2906,-352.0463 1169.7147,-342.7729 1167.3152,-334.1347"/>
<polygon fill="#000000" stroke="#000000" points="1170.6636,-333.1117 1164.6148,-324.4133 1163.919,-334.9852 1170.6636,-333.1117"/>
</g>
<!-- [root] provider.random (close) -->
<g id="node28" class="node">
<title>[root] provider.random (close)</title>
<ellipse fill="none" stroke="#000000" cx="1412.5" cy="-234" rx="118.8789" ry="18"/>
<text text-anchor="middle" x="1412.5" y="-230.3" font-family="Times,serif" font-size="14.00" fill="#000000">[root] provider.random (close)</text>
</g>
<!-- [root] provider.random (close)&#45;&gt;[root] random_id.log_analytics_workspace_name_suffix -->
<g id="edge34" class="edge">
<title>[root] provider.random (close)&#45;&gt;[root] random_id.log_analytics_workspace_name_suffix</title>
<path fill="none" stroke="#000000" d="M1421.7455,-215.7623C1434.3612,-190.8764 1457.0694,-146.0822 1471.7028,-117.2165"/>
<polygon fill="#000000" stroke="#000000" points="1474.9297,-118.5916 1476.3296,-108.0896 1468.6861,-115.4264 1474.9297,-118.5916"/>
</g>
<!-- [root] root -->
<g id="node29" class="node">
<title>[root] root</title>
<ellipse fill="none" stroke="#000000" cx="1179.5" cy="-450" rx="47.3916" ry="18"/>
<text text-anchor="middle" x="1179.5" y="-446.3" font-family="Times,serif" font-size="14.00" fill="#000000">[root] root</text>
</g>
<!-- [root] root&#45;&gt;[root] meta.count&#45;boundary (EachMode fixup) -->
<g id="edge36" class="edge">
<title>[root] root&#45;&gt;[root] meta.count&#45;boundary (EachMode fixup)</title>
<path fill="none" stroke="#000000" d="M1134.8996,-443.4196C1060.1362,-432.3889 907.3941,-409.8532 802.2565,-394.3411"/>
<polygon fill="#000000" stroke="#000000" points="802.6385,-390.8597 792.2347,-392.8625 801.6167,-397.7847 802.6385,-390.8597"/>
</g>
<!-- [root] root&#45;&gt;[root] provider.azurerm (close) -->
<g id="edge37" class="edge">
<title>[root] root&#45;&gt;[root] provider.azurerm (close)</title>
<path fill="none" stroke="#000000" d="M1179.5,-431.8314C1179.5,-424.131 1179.5,-414.9743 1179.5,-406.4166"/>
<polygon fill="#000000" stroke="#000000" points="1183.0001,-406.4132 1179.5,-396.4133 1176.0001,-406.4133 1183.0001,-406.4132"/>
</g>
<!-- [root] root&#45;&gt;[root] provider.random (close) -->
<g id="edge38" class="edge">
<title>[root] root&#45;&gt;[root] provider.random (close)</title>
<path fill="none" stroke="#000000" d="M1219.5509,-440.2594C1247.1468,-432.0028 1283.4044,-417.9391 1309.5,-396 1354.038,-358.556 1385.7327,-296.839 1401.3875,-261.3711"/>
<polygon fill="#000000" stroke="#000000" points="1404.6369,-262.6745 1405.375,-252.1054 1398.207,-259.9074 1404.6369,-262.6745"/>
</g>
</g>
</svg>
